<svg xmlns="http://www.w3.org/2000/svg" width="80.238" height="77.207" viewBox="0 0 80.238 77.207"><defs><style>.a{fill:#fff;}</style></defs><g transform="translate(-2346.741 -3230.656)"><path class="a" d="M2426.979,3277.679v2.029c-.057.2-.122.393-.17.592a7.072,7.072,0,0,1-3.685,4.893,26.278,26.278,0,0,1-3.386,1.193,2,2,0,0,0-.061.278,7.3,7.3,0,0,1-6.675,6.656c-.488.072-.556.3-.6.714a7.352,7.352,0,0,1-5.337,6.277c-.595.163-1.212.249-1.8.367a1.049,1.049,0,0,0-.056.176,7.188,7.188,0,0,1-5.005,6.547,7.269,7.269,0,0,1-7.963-1.959q-2.409-2.4-4.821-4.8c-.178-.177-.37-.339-.629-.574-1.934,1.956-3.774,3.914-5.719,5.761a7.429,7.429,0,0,1-9.81.329,7.51,7.51,0,0,1-2.76-5.5l-.4-.064a7.353,7.353,0,0,1-6.774-6.741c-.082-.551-.431-.493-.777-.535a7.385,7.385,0,0,1-6.271-5.453c-.142-.548-.219-1.112-.32-1.64a.559.559,0,0,0-.109-.058c-.128-.019-.257-.036-.386-.051a7.283,7.283,0,0,1-5.572-3.47,7.382,7.382,0,0,1,1.162-9.3c1.824-1.858,3.691-3.674,5.556-5.526-.167-.231-.3-.419-.436-.6a22.246,22.246,0,0,1-4.234-18.133c3.169-16.614,22.909-24.005,36.4-13.672a.719.719,0,0,0,1.062.005,22.821,22.821,0,0,1,35.2,26.367,67,67,0,0,1-3.287,6.224c1.238,1.225,2.613,2.65,4.061,4A10.423,10.423,0,0,1,2426.979,3277.679Zm-47.362-28.183c-1.416,1.418-2.758,2.765-4.1,4.107q-11.463,11.422-22.933,22.841a3.208,3.208,0,0,0-1.117,2.075,2.774,2.774,0,0,0,4.731,2.145c1.716-1.674,3.407-3.374,5.1-5.072a2.393,2.393,0,0,1,2.033-.8,2.2,2.2,0,0,1,1.942,1.478,2.247,2.247,0,0,1-.545,2.516q-2.5,2.526-5.038,5.023a2.811,2.811,0,0,0-.956,2.447,2.64,2.64,0,0,0,1.794,2.266,2.667,2.667,0,0,0,2.954-.664c1.672-1.644,3.306-3.328,5-4.946a3.429,3.429,0,0,1,1.526-.848,2.17,2.17,0,0,1,2.414,1.188,2.336,2.336,0,0,1-.477,2.8c-1.649,1.668-3.344,3.292-4.963,4.987a3.8,3.8,0,0,0-.936,1.651,2.6,2.6,0,0,0,1.419,2.935,2.721,2.721,0,0,0,3.245-.518c1.7-1.658,3.34-3.369,5.062-5a3.479,3.479,0,0,1,1.613-.838,2.154,2.154,0,0,1,2.3,1.254,2.251,2.251,0,0,1-.466,2.723c-1.644,1.672-3.322,3.312-4.97,4.981a4.063,4.063,0,0,0-.791,1.051,2.716,2.716,0,0,0,.95,3.386,2.758,2.758,0,0,0,3.578-.357c1.792-1.746,3.539-3.538,5.335-5.279a.89.89,0,0,0,.231-1.144,7.413,7.413,0,0,1,5.557-10.033c.377-.073.762-.107,1.153-.16a7.522,7.522,0,0,1,2.193-5.01,21.426,21.426,0,0,0,12.283-9.474c.028-.148.063-.3.085-.454a7.409,7.409,0,0,1,10.206-6.153c.548.2.7-.087.924-.4a17.619,17.619,0,0,0,3.078-14.866,18.048,18.048,0,0,0-20.5-13.781,17.786,17.786,0,0,0-8.39,3.658,4.89,4.89,0,0,1,.8.515c2.741,2.713,5.462,5.447,8.206,8.156a7.6,7.6,0,0,1,2.429,5.167,7.461,7.461,0,0,1-12.583,5.772c-1.178-1.1-2.3-2.266-3.448-3.407C2383.595,3253.471,2381.643,3251.519,2379.617,3249.5Zm-21.531,15.125a4.841,4.841,0,0,1,.516-.791q9.486-9.471,18.987-18.928c1.408-1.4,2.637-1.4,4.042-.005q5.206,5.184,10.413,10.368a2.794,2.794,0,0,0,4.053.092,2.734,2.734,0,0,0-.11-3.976c-3.7-3.7-7.385-7.427-11.142-11.076a17.381,17.381,0,0,0-10.909-4.9,18.111,18.111,0,0,0-15.85,29.216Zm32.847,25.777c-1.586.038-2.475.56-2.955,1.632a2.61,2.61,0,0,0,.558,3.091q3.6,3.634,7.249,7.218a2.763,2.763,0,1,0,3.888-3.925c-2.378-2.407-4.765-4.806-7.2-7.152A5.829,5.829,0,0,0,2390.933,3290.4Zm14.438-14.467a2.9,2.9,0,0,0-2.9,1.664,2.557,2.557,0,0,0,.532,3.025q3.619,3.669,7.3,7.28a2.76,2.76,0,0,0,3.912-3.9c-2.41-2.45-4.84-4.881-7.317-7.263A5.387,5.387,0,0,0,2405.371,3275.931Zm2.574,17.135a7.91,7.91,0,0,0-1.015-1.845c-2.353-2.431-4.764-4.807-7.176-7.181a2.766,2.766,0,1,0-3.931,3.891c.74.768,1.508,1.51,2.264,2.264,1.642,1.635,3.272,3.282,4.929,4.9a2.635,2.635,0,0,0,3.094.591A3.142,3.142,0,0,0,2407.945,3293.066Zm4.451-24.493a3.215,3.215,0,0,0-2.66,1.755,2.667,2.667,0,0,0,.541,3.1q3.6,3.633,7.247,7.22a2.768,2.768,0,0,0,3.937.025,2.715,2.715,0,0,0-.015-3.916c-2.4-2.425-4.8-4.841-7.262-7.206A7.627,7.627,0,0,0,2412.4,3268.573Z"/></g></svg>