<svg xmlns="http://www.w3.org/2000/svg" width="575.105" height="726.932" viewBox="0 0 575.105 726.932"><defs><style>.a{fill:#8c32ff;}</style></defs><path class="a" d="M57.214,6914.248a361.788,361.788,0,0,0,211.638-67.957,365.559,365.559,0,0,1-67.433-62.66,272.3,272.3,0,0,1-144.205,41.156c-151.087,0-274.006-122.918-274.006-274s122.919-274.006,274.006-274.006a272.3,272.3,0,0,1,144.205,41.157,365.5,365.5,0,0,1,67.433-62.661,361.794,361.794,0,0,0-211.638-67.956c-200.737,0-363.467,162.729-363.467,363.466S-143.523,6914.248,57.214,6914.248Z" transform="translate(306.253 -6187.316)"/></svg>