<svg xmlns="http://www.w3.org/2000/svg" width="59.199" height="90.425" viewBox="0 0 59.199 90.425"><defs><style>.a{fill:#fff;}</style></defs><path class="a" d="M2416.765,3802.631a29.353,29.353,0,0,0-34.184-23.21,29.667,29.667,0,0,0-24.14,32.519,29.032,29.032,0,0,0,11.453,20.071,11.78,11.78,0,0,1,4.946,10.066c-.014.9-.253,1.2-1.117,1.4a5.576,5.576,0,0,0-3.59,8.431,1.235,1.235,0,0,1-.013,1.507,5.651,5.651,0,0,0,4.829,8.593c.4.009.8.005,1.212.005l.614,0-.078.876a6.137,6.137,0,0,0,1.363,4.616,5.594,5.594,0,0,0,4.088,1.8c1.531.063,3.142.094,4.924.094,2.291,0,4.555-.05,6.739-.107a5.292,5.292,0,0,0,4.936-4,10.234,10.234,0,0,0,.229-2.169l.047-1.1,1.425,0a5.613,5.613,0,0,0,5.169-2.886,5.412,5.412,0,0,0-.192-5.9.923.923,0,0,1,.018-1.179,5.217,5.217,0,0,0,.894-3.68,5.6,5.6,0,0,0-4.7-5l-.166-.033c-.067-.013-.147-.028-.211-.045l-.458-.114.038-.472c.035-.437.056-.878.075-1.305a17.8,17.8,0,0,1,.242-2.577c.609-3.141,2.721-5.253,4.912-7.067C2415.431,3824.009,2419.03,3814.21,2416.765,3802.631Zm-22.2,62.173a2.029,2.029,0,0,1-1.42.517c-.668.007-1.343.009-2.016.009-.443,0-.886,0-1.323,0h-3.986c-1.1,0-2.215,0-3.315-.007a2.014,2.014,0,0,1-1.41-.515,1.533,1.533,0,0,1-.425-1.127,1.656,1.656,0,0,1,1.839-1.661c3.529-.02,7.11-.02,10.641,0a1.66,1.66,0,0,1,1.838,1.668A1.529,1.529,0,0,1,2394.563,3864.8Zm6.433-6.849a3.518,3.518,0,0,1-.78.065q-7.25,0-14.47,0-5.148,0-10.288,0c-1.241,0-1.964-.485-2.092-1.405a1.682,1.682,0,0,1,.333-1.371,1.747,1.747,0,0,1,1.356-.539c1.225-.011,2.462-.015,3.689-.015l13.3,0c2.8,0,5.593,0,8.388,0,1.057,0,1.677.411,1.843,1.213A1.63,1.63,0,0,1,2401,3857.955Zm.3-10.491a1.484,1.484,0,0,1,.989,1.786v0a1.4,1.4,0,0,1-1.438,1.323c-.818.021-1.647.028-2.466.028-.355,0-.709,0-1.059,0h-15.2c-2.309,0-4.619,0-6.926-.007a1.61,1.61,0,0,1-1.83-1.322,1.593,1.593,0,0,1,1.327-1.921,4.443,4.443,0,0,1,1-.08c7.318,0,15.831,0,24.251,0A4.109,4.109,0,0,1,2401.294,3847.464Zm-11.835-9.772,0,4.413c0,.237,0,.5-.014.659l-.038.477-.477.032c-.163.011-.432,0-.646.009-.274-.007-.509,0-.717,0-.164,0-.31,0-.437,0-.177,0-.316,0-.412-.011l-.459-.039-.047-.459c-.02-.18-.017-.513-.014-.842l0-.693c-.01-2.28-.008-4.6,0-6.841l0-5.746c0-2.569.008-5.222-.015-7.833a1.284,1.284,0,0,1,.173-.8l.164-.146a1.55,1.55,0,0,1,.71-.124c.275.009.514.011.726.013h.147a8.462,8.462,0,0,1,.874.035l.424.061.049.426c.019.172.017.5.012.825,0,.274-.009.544-.009.855C2389.465,3827.208,2389.463,3832.537,2389.459,3837.692Zm13.923-8.915c-3.54,2.831-5.514,5.848-6.21,9.494a22.668,22.668,0,0,0-.289,3.728l-.01.454a1.621,1.621,0,0,1-.054.418l-.091.309-.312.076a5.286,5.286,0,0,1-1.01.048c-1.035,0-1.358-.05-1.581-.272-.263-.259-.292-.659-.292-2.125l.005-12.291c0-2.552.01-5.188-.023-7.78a1.425,1.425,0,0,1,.143-.77c.147-.3.567-.329.967-.318a23.784,23.784,0,0,0,3.361-.122,7.462,7.462,0,0,0,6.565-7.327,7.54,7.54,0,0,0-6.282-7.491,7.432,7.432,0,0,0-8.707,6.86c-.064.9-.094,1.879-.1,3.173a1.43,1.43,0,0,1-.057.442l-.1.291-.3.074a1.554,1.554,0,0,1-.363.033c-.294-.009-.573,0-.818,0h-.172c-.382,0-.786,0-.986-.024l-.446-.058-.037-.448c-.014-.17-.006-.483,0-.788.01-.352.019-.652.018-1a8.6,8.6,0,0,0-2.685-6.844,7.472,7.472,0,0,0-8.606-.829,7.57,7.57,0,0,0-3.63,8.108,7.428,7.428,0,0,0,6.286,5.827,33.658,33.658,0,0,0,3.4.142l.332,0a1.366,1.366,0,0,1,.417.05l.292.091.079.3a1.439,1.439,0,0,1,.039.357c-.015,7.217-.015,14.6,0,21.939a1.578,1.578,0,0,1-.031.342l-.071.322-.316.093a1.557,1.557,0,0,1-.389.048c-.355.009-.649.013-.893.013-.8,0-1.076-.054-1.28-.241-.271-.25-.312-.64-.359-2.064a14.739,14.739,0,0,0-6.028-11.793,25.939,25.939,0,0,1-9.744-14.564,25.159,25.159,0,0,1,3.336-19.972,25.666,25.666,0,0,1,16.952-11.3,26.159,26.159,0,0,1,19.588,4.461,24.7,24.7,0,0,1,10.142,16.565C2414.481,3814.291,2411.233,3822.493,2403.382,3828.777Zm-9.849-15.328v-.324c0-.294,0-.589.005-.887a3.381,3.381,0,0,1,3.488-3.491,3.457,3.457,0,0,1,3.5,3.4,3.317,3.317,0,0,1-.912,2.4,3.7,3.7,0,0,1-2.621,1.124c-.14,0-.279,0-.42,0l-.41,0-.384,0h-.007c-1.33,0-1.686-.024-1.938-.235C2393.556,3815.115,2393.533,3814.756,2393.533,3813.449Zm-11.415-.461,0,.424c0,1.357-.022,1.725-.256,1.975-.275.261-.647.287-2,.287h-.006l-.5,0h-.136c-.238,0-.471,0-.7-.008a3.461,3.461,0,0,1,.043-6.921,3.368,3.368,0,0,1,3.559,3.362C2382.122,3812.4,2382.12,3812.686,2382.118,3812.988Z" transform="translate(-2358.222 -3778.964)"/></svg>