<svg xmlns="http://www.w3.org/2000/svg" width="85.101" height="85.101" viewBox="0 0 85.101 85.101"><defs><style>.a{fill:#8c32ff;}.b{fill:#fff;}</style></defs><g transform="translate(-2339.342 -8126.106)"><circle class="a" cx="42.551" cy="42.551" r="42.551" transform="translate(2339.342 8126.106)"/><rect class="b" width="8.745" height="28.251" transform="translate(2361.554 8161.594)"/><path class="b" d="M2365.885,8157.9a5.214,5.214,0,1,0-5.171-5.215A5.194,5.194,0,0,0,2365.885,8157.9Z"/><path class="b" d="M2384.278,8175.015c0-3.972,1.828-6.338,5.329-6.338,3.215,0,4.76,2.271,4.76,6.338v14.83h8.7v-17.888c0-7.567-4.289-11.226-10.279-11.226a9.851,9.851,0,0,0-8.514,4.668v-3.8h-8.388v28.251h8.388Z"/></g></svg>