<svg xmlns="http://www.w3.org/2000/svg" width="85.101" height="85.101" viewBox="0 0 85.101 85.101"><defs><style>.a{fill:#8c32ff;}.b{fill:#fff;}</style></defs><g transform="translate(-2117.268 -8126.106)"><circle class="a" cx="42.551" cy="42.551" r="42.551" transform="translate(2117.268 8126.106)"/><path class="b" d="M2159.819,8147.859c6.773,0,7.576.026,10.25.148a14.044,14.044,0,0,1,4.711.874,8.393,8.393,0,0,1,4.814,4.814,14.027,14.027,0,0,1,.874,4.711c.122,2.675.148,3.477.148,10.251s-.026,7.576-.148,10.25a14.027,14.027,0,0,1-.874,4.711,8.393,8.393,0,0,1-4.814,4.814,14.019,14.019,0,0,1-4.711.874c-2.674.122-3.476.148-10.25.148s-7.576-.026-10.251-.148a14.014,14.014,0,0,1-4.711-.874,8.4,8.4,0,0,1-4.815-4.814,14.06,14.06,0,0,1-.873-4.711c-.122-2.674-.148-3.477-.148-10.25s.026-7.576.148-10.251a14.06,14.06,0,0,1,.873-4.711,8.4,8.4,0,0,1,4.815-4.814,14.039,14.039,0,0,1,4.711-.874c2.675-.122,3.477-.148,10.251-.148m0-4.571c-6.89,0-7.754.03-10.46.153a18.624,18.624,0,0,0-6.158,1.179,12.969,12.969,0,0,0-7.419,7.42,18.611,18.611,0,0,0-1.179,6.157c-.123,2.706-.153,3.57-.153,10.46s.03,7.753.153,10.459a18.623,18.623,0,0,0,1.179,6.158,12.974,12.974,0,0,0,7.419,7.419,18.625,18.625,0,0,0,6.158,1.179c2.706.124,3.57.153,10.46.153s7.753-.029,10.459-.153a18.625,18.625,0,0,0,6.158-1.179,12.974,12.974,0,0,0,7.419-7.419,18.623,18.623,0,0,0,1.179-6.158c.124-2.706.153-3.57.153-10.459s-.029-7.754-.153-10.46a18.611,18.611,0,0,0-1.179-6.157,12.969,12.969,0,0,0-7.419-7.42,18.624,18.624,0,0,0-6.158-1.179c-2.706-.123-3.57-.153-10.459-.153"/><path class="b" d="M2159.819,8155.63a13.027,13.027,0,1,0,13.026,13.027,13.027,13.027,0,0,0-13.026-13.027m0,21.483a8.456,8.456,0,1,1,8.455-8.456,8.457,8.457,0,0,1-8.455,8.456"/><path class="b" d="M2176.405,8155.115a3.045,3.045,0,1,1-3.045-3.044,3.045,3.045,0,0,1,3.045,3.044"/></g></svg>