<svg xmlns="http://www.w3.org/2000/svg" width="48.003" height="62.146" viewBox="0 0 48.003 62.146"><defs><style>.a{fill:#c09bfc;}</style></defs><path class="a" d="M544.2,3873.227l-11.789-13.1q-5.806-6.455-11.617-12.906a2.925,2.925,0,0,1-.759-3.322,2.96,2.96,0,0,1,3.027-1.729q8.062.006,16.125,0a3.414,3.414,0,0,1,2.691,1.2q12.435,13.837,24.888,27.66c1.378,1.532,1.363,2.907-.031,4.459q-12.417,13.8-24.833,27.6a3.42,3.42,0,0,1-2.684,1.224c-5.4-.007-10.806.008-16.208-.007-2.344-.007-3.8-1.884-3-3.854a4.621,4.621,0,0,1,.882-1.282q11.3-12.579,22.617-25.144C543.729,3873.785,543.938,3873.534,544.2,3873.227Z" transform="translate(-519.79 -3842.169)"/></svg>