<svg xmlns="http://www.w3.org/2000/svg" width="22.044" height="22.045" viewBox="0 0 22.044 22.045"><defs><style>.a{fill:#8c32ff;}</style></defs><g transform="translate(-89.584 -384.065)"><path class="a" d="M100.606,386.051c2.943,0,3.292.011,4.454.064a6.1,6.1,0,0,1,2.047.38,3.649,3.649,0,0,1,2.092,2.092,6.1,6.1,0,0,1,.379,2.047c.053,1.162.065,1.51.065,4.454s-.012,3.291-.065,4.453a6.1,6.1,0,0,1-.379,2.047,3.649,3.649,0,0,1-2.092,2.092,6.1,6.1,0,0,1-2.047.38c-1.162.053-1.51.064-4.454.064s-3.292-.011-4.454-.064a6.09,6.09,0,0,1-2.046-.38,3.642,3.642,0,0,1-2.092-2.092,6.091,6.091,0,0,1-.38-2.047c-.053-1.162-.064-1.51-.064-4.453s.011-3.292.064-4.454a6.091,6.091,0,0,1,.38-2.047,3.642,3.642,0,0,1,2.092-2.092,6.09,6.09,0,0,1,2.046-.38c1.162-.053,1.511-.064,4.454-.064m0-1.986c-2.993,0-3.369.013-4.544.066a8.084,8.084,0,0,0-2.676.513,5.632,5.632,0,0,0-3.223,3.224,8.084,8.084,0,0,0-.513,2.675c-.054,1.176-.066,1.551-.066,4.545s.012,3.368.066,4.544a8.1,8.1,0,0,0,.513,2.676,5.634,5.634,0,0,0,3.223,3.223,8.086,8.086,0,0,0,2.676.513c1.175.053,1.551.066,4.544.066s3.369-.013,4.545-.066a8.085,8.085,0,0,0,2.675-.513,5.632,5.632,0,0,0,3.224-3.223,8.1,8.1,0,0,0,.512-2.676c.054-1.176.066-1.551.066-4.544s-.012-3.369-.066-4.545a8.086,8.086,0,0,0-.512-2.675,5.63,5.63,0,0,0-3.224-3.224,8.083,8.083,0,0,0-2.675-.513c-1.176-.053-1.551-.066-4.545-.066"/><path class="a" d="M100.606,389.427a5.66,5.66,0,1,0,5.66,5.661,5.66,5.66,0,0,0-5.66-5.661m0,9.335a3.674,3.674,0,1,1,3.674-3.674,3.674,3.674,0,0,1-3.674,3.674"/><path class="a" d="M107.813,389.2a1.323,1.323,0,1,1-1.323-1.323,1.324,1.324,0,0,1,1.323,1.323"/></g></svg>