<svg xmlns="http://www.w3.org/2000/svg" width="19.058" height="24.674" viewBox="0 0 19.058 24.674"><defs><style>.a{fill:#fff;}</style></defs><path class="a" d="M1035.611,4376.594l-4.68-5.2q-2.305-2.562-4.613-5.124a1.162,1.162,0,0,1-.3-1.319,1.177,1.177,0,0,1,1.2-.686q3.2,0,6.4,0a1.359,1.359,0,0,1,1.069.478q4.937,5.494,9.881,10.982a1.155,1.155,0,0,1-.013,1.77q-4.929,5.479-9.859,10.958a1.362,1.362,0,0,1-1.065.486c-2.145,0-4.29,0-6.435,0a1.129,1.129,0,0,1-1.192-1.53,1.815,1.815,0,0,1,.35-.508q4.487-5,8.979-9.983C1035.422,4376.816,1035.505,4376.716,1035.611,4376.594Z" transform="translate(-1025.918 -4364.263)"/></svg>