<svg xmlns="http://www.w3.org/2000/svg" width="56.18" height="43.396" viewBox="0 0 56.18 43.396"><defs><style>.a{fill:#fff;}</style></defs><path class="a" d="M2026.067,7714.388l-11.843,10.656q-5.835,5.25-11.667,10.5a2.644,2.644,0,0,1-3,.687,2.677,2.677,0,0,1-1.562-2.737q0-7.288,0-14.577a3.089,3.089,0,0,1,1.088-2.433q12.51-11.242,25.006-22.5c1.385-1.246,2.628-1.233,4.03.029q12.476,11.224,24.95,22.448a3.1,3.1,0,0,1,1.106,2.426c-.006,4.884.008,9.768-.007,14.652-.007,2.119-1.7,3.439-3.484,2.715a4.175,4.175,0,0,1-1.159-.8q-11.372-10.215-22.73-20.446C2026.571,7714.817,2026.344,7714.628,2026.067,7714.388Z" transform="translate(-1997.99 -7693.062)"/></svg>