<svg xmlns="http://www.w3.org/2000/svg" width="73.249" height="81.939" viewBox="0 0 73.249 81.939"><defs><style>.a{fill:#fff;}</style></defs><g transform="translate(-2351.253 -4894.682)"><path class="a" d="M2373.79,4976.621a2.89,2.89,0,0,1-1.722-1.664,2.4,2.4,0,0,1,2.242-3.139c1.354-.035,2.71-.008,4.135-.008l.92-12.116h-1c-6.587,0-13.174.012-19.762,0a6.949,6.949,0,0,1-7.115-5.373,8.871,8.871,0,0,1-.223-2.058q-.019-16.562-.008-33.123a7.073,7.073,0,0,1,7.467-7.486q17.843,0,35.684.011a1.867,1.867,0,0,0,1.463-.6q6.949-7.023,13.94-14.007a7.622,7.622,0,0,1,12.849,3.081,7.444,7.444,0,0,1-2.012,7.718c-1.024,1.049-2.077,2.071-3.113,3.109-.18.179-.343.374-.52.568a21.669,21.669,0,0,1,2.611.489,7.02,7.02,0,0,1,4.867,6.96c.014,6.374,0,12.748,0,19.122,0,4.774.015,9.548-.005,14.322a7.015,7.015,0,0,1-5.752,7.149,10.133,10.133,0,0,1-1.911.121q-9.721.012-19.442,0h-1l.919,12.113h3.415c1.725,0,2.708.591,3,1.8.3,1.275-.243,2.215-1.757,3.011Zm16.541-59.965-.11-.2H2377.35q-9.323,0-18.644,0a2.308,2.308,0,0,0-2.626,2.6c-.009.64,0,1.28,0,1.92q0,15.6,0,31.207c0,1.817.807,2.685,2.512,2.686q29.286.006,58.572,0a2.214,2.214,0,0,0,2.5-2.453q.019-16.723,0-33.447a2.269,2.269,0,0,0-2.549-2.509c-1.52-.013-3.041-.027-4.56.016a1.55,1.55,0,0,0-.96.411q-7.759,7.688-15.47,15.423a1.655,1.655,0,0,0-.414,1.1,12.773,12.773,0,0,1-1.925,7.228c-1.607,2.612-4.109,3.947-6.873,4.926a68.272,68.272,0,0,1-15.054,3.193c-2.135.248-3.233-.99-2.926-3.147.026-.185.033-.372.058-.557A69.052,69.052,0,0,1,2372,4931.1a13.988,13.988,0,0,1,3.031-5.569,11.786,11.786,0,0,1,9.115-3.535c.3.011.716.037.9-.134C2386.827,4920.148,2388.574,4918.4,2390.331,4916.656Zm3.773,10.966c2.186-2.22,4.434-4.53,6.713-6.809q8.145-8.144,16.317-16.258a2.9,2.9,0,0,0,.883-3.118,2.821,2.821,0,0,0-4.837-.942q-9.465,9.481-18.919,18.973c-1.409,1.412-2.849,2.793-4.194,4.108Zm-20.068,16a60.828,60.828,0,0,0,11.589-2.723,10,10,0,0,0,3.055-1.663,7.117,7.117,0,0,0,1.707-7.789,7.261,7.261,0,0,0-6.67-4.64,6.44,6.44,0,0,0-6.542,4.288c-.988,2.8-1.667,5.707-2.412,8.585C2374.439,4940.934,2374.288,4942.228,2374.036,4943.627Zm17.516,16.122H2384.2l-.905,11.993h9.167C2392.155,4967.723,2391.856,4963.772,2391.552,4959.749Z"/></g></svg>