<svg xmlns="http://www.w3.org/2000/svg" width="76.812" height="77.056" viewBox="0 0 76.812 77.056"><defs><style>.a{fill:#000;}</style></defs><g transform="translate(-2349.559 -4343.039)"><path class="a" d="M2387.943,4343.039q4.96,0,9.92,0a2.608,2.608,0,0,1,2.9,2.921c0,4.613-.007,9.226.012,13.839a4.832,4.832,0,0,0,.243,1.478q2.284,6.94,4.62,13.865a3.138,3.138,0,0,1-.293,2.816q-7.519,12.5-15.014,25.007c-1.234,2.054-3.5,2.066-4.727.023q-7.533-12.534-15.057-25.076a3.067,3.067,0,0,1-.277-2.744q2.358-6.959,4.648-13.939a4.6,4.6,0,0,0,.226-1.4c.016-4.613.008-9.225.011-13.838a2.606,2.606,0,0,1,2.948-2.95Q2383.024,4343.037,2387.943,4343.039Zm-2.714,49.37.17-.051v-.861q0-7.479,0-14.957a2.566,2.566,0,1,1,5.121-.057c.014,5.038,0,10.077,0,15.116v.942a3.39,3.39,0,0,0,.251-.274q4.752-7.912,9.483-15.837a1.411,1.411,0,0,0,.038-1.032c-1.22-3.745-2.477-7.478-3.7-11.221a.784.784,0,0,0-.88-.664q-7.758.036-15.516,0a.74.74,0,0,0-.847.6c-1.231,3.77-2.5,7.527-3.718,11.3a1.6,1.6,0,0,0,.132,1.163c1.418,2.441,2.885,4.854,4.337,7.275Zm-4.9-44.213v10.146H2395.6V4348.2Z"/><path class="a" d="M2387.931,4419.869a38.432,38.432,0,0,1-37.854-32.089,53.829,53.829,0,0,1-.514-6.049,2.534,2.534,0,0,1,2.485-2.836,2.611,2.611,0,0,1,2.624,2.8c.369,12.056,5.577,21.448,15.7,27.982a32.02,32.02,0,0,0,20.131,4.952,33.288,33.288,0,0,0,29.179-23.083,34.374,34.374,0,0,0,1.573-9.989,2.559,2.559,0,0,1,3.525-2.478,2.6,2.6,0,0,1,1.589,2.547,36.9,36.9,0,0,1-3.974,16.8c-5.545,10.847-14.267,17.74-26.145,20.492-2.708.628-5.524.791-8.291,1.168Z"/></g></svg>