<svg xmlns="http://www.w3.org/2000/svg" width="187.288" height="187.288" viewBox="0 0 187.288 187.288"><defs><style>.a{fill:#4dce99;}.b{fill:#fff;fill-rule:evenodd;}</style></defs><circle class="a" cx="93.644" cy="93.644" r="93.644"/><g transform="translate(-827.571 -1681.113)"><path class="b" d="M975.38,1772.457a53.217,53.217,0,0,0-106.336-.97c-.025.771-.05,1.544-.05,2.315a52.4,52.4,0,0,0,7.622,27.276l-9.591,28.322,29.468-9.367a53.272,53.272,0,0,0,78.912-46.231C975.405,1773.353,975.405,1772.906,975.38,1772.457ZM922.2,1818.19a44.557,44.557,0,0,1-24.61-7.348l-17.187,5.481,5.579-16.491a43.945,43.945,0,0,1-8.519-26.03,41.63,41.63,0,0,1,.224-4.308,44.754,44.754,0,0,1,89.1.846c.1,1.147.15,2.291.15,3.462A44.612,44.612,0,0,1,922.2,1818.19Z"/><path class="b" d="M946.586,1784.463c-1.32-.646-7.723-3.786-8.918-4.209-1.2-.449-2.068-.647-2.94.648s-3.387,4.209-4.135,5.056c-.772.872-1.518.972-2.838.324a35.251,35.251,0,0,1-10.487-6.427,38.678,38.678,0,0,1-7.25-8.942c-.746-1.295-.074-1.993.574-2.64.6-.6,1.3-1.52,1.967-2.266.175-.225.324-.425.473-.624a14.455,14.455,0,0,0,.822-1.545,2.332,2.332,0,0,0-.1-2.266c-.324-.648-2.939-7.024-4.036-9.615-1.07-2.59-2.166-2.143-2.938-2.143-.748,0-1.62-.123-2.491-.123a4.828,4.828,0,0,0-3.488,1.618,14.5,14.5,0,0,0-4.558,10.811,16.464,16.464,0,0,0,.673,4.409,29.391,29.391,0,0,0,4.658,8.968c.647.847,9.017,14.346,22.268,19.553,13.276,5.157,13.276,3.437,15.668,3.213,2.391-.2,7.723-3.113,8.792-6.152,1.1-3.014,1.1-5.6.773-6.153C948.752,1785.435,947.879,1785.111,946.586,1784.463Z"/></g></svg>