<svg xmlns="http://www.w3.org/2000/svg" width="333.422" height="70.776" viewBox="0 0 333.422 70.776"><defs><style>.a{fill:#fff;}</style></defs><g transform="translate(-1621.342 -8078.641)"><path class="a" d="M1621.342,8097.1h18.587l18.709,47.759,1.477,3.938h-18.586Z"/><path class="a" d="M1686.053,8122.953c0-15.14,8.247-26.464,26.956-26.464,18.094,0,26.956,8.862,26.956,27.079h-36.311c.37,12.063,6.032,20.064,16.494,20.064,7.755,0,13.417-3.57,17.233-9.6a6.057,6.057,0,0,1,.492,2.585c0,5.908-9.847,12.8-22.156,12.8C1694.915,8149.417,1686.053,8138.093,1686.053,8122.953Zm36.311-1.846c-.369-14.894-4.185-22.156-9.355-22.156-5.908,0-9.108,8.862-9.355,22.156Z"/><path class="a" d="M1749.755,8097.1h17.232v4.8c5.047-3.693,12.063-5.416,18.587-5.416,8.369,0,15.755,3.077,15.755,8.493a6.035,6.035,0,0,1-6.4,5.908c-7.385,0-7.016-9.724-16.37-9.724-5.047,0-8.986,2.708-11.571,5.17V8148.8h-17.232Z"/><path class="a" d="M1807.214,8097.1h17.233v7.878a22.429,22.429,0,0,1,17.847-8.493c13.294,0,23.018,9.355,23.018,26.341V8148.8c-9.6,0-17.232-1.354-17.232-9.97v-17.355c0-13.048-3.078-19.2-10.832-19.2-4.308,0-8.985,2.462-12.8,7.262V8148.8h-17.233Z"/><path class="a" d="M1874.118,8135.015c0-22.4,39.634-11.816,39.634-26.71,0-4.431-2.831-9.354-8.37-9.354-10.585,0-2.954,16.247-15.386,16.247a6.571,6.571,0,0,1-6.77-6.646c0-5.416,5.908-12.063,21.418-12.063,11.324,0,23.017,3.693,23.017,19.448V8148.8c-8.37,0-15.14-.984-16.863-6.893-4.554,5.047-11.94,7.509-18.217,7.509C1881.872,8149.417,1874.118,8144.124,1874.118,8135.015Zm36.311,3.57v-20.8c-6.77,3.693-18.71,5.539-18.71,15.632,0,5.662,4.8,8.863,9.847,8.863A12.494,12.494,0,0,0,1910.429,8138.585Z"/><path class="a" d="M1937.532,8138.954v-60.313h17.232v70.16C1945.163,8148.8,1937.655,8147.447,1937.532,8138.954Z"/><path class="a" d="M1678.51,8112.58c-3.274,5.075-12.22,7.631-16.31,28.718,0,0-12.013-22.749-1.928-38.656,3.585-5.654,9.085-8.119,14.919-5.675C1680.481,8099.183,1682.139,8106.954,1678.51,8112.58Z"/></g></svg>