<svg xmlns="http://www.w3.org/2000/svg" width="56.785" height="36.15" viewBox="0 0 56.785 36.15"><defs><style>.a{fill:#fff;}</style></defs><g transform="translate(-2242.463 -8150.581)"><path class="a" d="M2263.337,8185.366a9.671,9.671,0,0,0,3.985-1.769,9.783,9.783,0,0,0,2.5-2.774,10.329,10.329,0,0,0,1.569-5.625,9.343,9.343,0,0,0-1.373-5.166,7.869,7.869,0,0,0-4.074-3.112,8.426,8.426,0,0,0,2.691-2.009,7.856,7.856,0,0,0,1.633-5.192,8.972,8.972,0,0,0-1.62-5.383q-2.689-3.657-9.138-3.755h-17.045v35.265h15.891A24.361,24.361,0,0,0,2263.337,8185.366Zm-13.84-28.66h7.672a13.226,13.226,0,0,1,4.168.551,3.155,3.155,0,0,1,1.9,3.253,3.332,3.332,0,0,1-1.434,3.1,7.1,7.1,0,0,1-3.73.873H2249.5Zm0,23.015v-9.4h8.679a8.882,8.882,0,0,1,3.526.6,3.783,3.783,0,0,1,2.246,3.778q0,3.254-2.318,4.4a8.309,8.309,0,0,1-3.57.621Z"/><path class="a" d="M2277.361,8183.522a14.2,14.2,0,0,0,9.185,3.209q6.309,0,9.81-3.8a8.517,8.517,0,0,0,2.53-4.713h-6.962a5.7,5.7,0,0,1-1.4,1.793,5.763,5.763,0,0,1-3.786,1.2,6.922,6.922,0,0,1-3.758-.981q-2.57-1.58-2.728-5.5h18.992a33.384,33.384,0,0,0-.224-5.174,12.786,12.786,0,0,0-2.078-5.391,10.581,10.581,0,0,0-4.507-3.858,14.836,14.836,0,0,0-6.132-1.22,12.572,12.572,0,0,0-9.324,3.615q-3.593,3.614-3.593,10.39Q2273.382,8180.314,2277.361,8183.522Zm4.871-17.335a5.413,5.413,0,0,1,4.069-1.489,5.988,5.988,0,0,1,4.046,1.4,5.69,5.69,0,0,1,1.816,4.12h-11.747A7.084,7.084,0,0,1,2282.232,8166.187Z"/><rect class="a" width="15.325" height="3.559" transform="translate(2278.193 8152.608)"/></g></svg>