<svg xmlns="http://www.w3.org/2000/svg" width="35.364" height="35.378" viewBox="0 0 35.364 35.378"><defs><style>.a{fill:#8c32ff;}</style></defs><g transform="translate(-2117.268 -8235.589)"><path class="a" d="M2144.644,8270.967a10.572,10.572,0,0,0,6.523-2.994,2.7,2.7,0,0,0,.638-.882,10.594,10.594,0,0,0,.821-3.44,1.179,1.179,0,0,0-.628-1.2c-.505-.3-1.018-.576-1.523-.872q-2.613-1.528-5.221-3.063a1.538,1.538,0,0,0-2.278.214c-.547.525-1.023,1.125-1.529,1.692-.536.6-1.056,1.214-1.609,1.8a1.175,1.175,0,0,1-1.519.262c-.811-.435-1.621-.874-2.412-1.344a22.869,22.869,0,0,1-7.134-6.354c-1.091-1.533-2.016-3.185-2.99-4.8a1.235,1.235,0,0,1,.3-1.663c.592-.544,1.211-1.061,1.81-1.6.577-.517,1.178-1.014,1.708-1.577a1.416,1.416,0,0,0,.2-2.021c-.072-.127-.153-.25-.228-.375-.733-1.232-1.474-2.459-2.194-3.7-.521-.9-1.017-1.81-1.521-2.719a1.23,1.23,0,0,0-1.416-.708c-1.041.218-2.086.433-3.106.729a2.451,2.451,0,0,0-1.049.69,10.639,10.639,0,0,0-3.01,6.841,9.673,9.673,0,0,0,.529,3.453,31.27,31.27,0,0,0,5.15,10.446,48.5,48.5,0,0,0,7.512,7.494,23.555,23.555,0,0,0,6.19,3.622c1.188.452,2.379.9,3.579,1.321A12.18,12.18,0,0,0,2144.644,8270.967Z"/><path class="a" d="M2144.644,8270.967a12.18,12.18,0,0,1-4.408-.748c-1.2-.421-2.391-.869-3.579-1.321a23.555,23.555,0,0,1-6.19-3.622,48.5,48.5,0,0,1-7.512-7.494,31.27,31.27,0,0,1-5.15-10.446,9.673,9.673,0,0,1-.529-3.453,10.639,10.639,0,0,1,3.01-6.841,2.451,2.451,0,0,1,1.049-.69c1.02-.3,2.065-.511,3.106-.729a1.23,1.23,0,0,1,1.416.708c.5.909,1,1.822,1.521,2.719.72,1.239,1.461,2.466,2.194,3.7.075.125.156.248.228.375a1.416,1.416,0,0,1-.2,2.021c-.53.563-1.131,1.061-1.708,1.577-.6.536-1.218,1.053-1.81,1.6a1.235,1.235,0,0,0-.3,1.663c.974,1.614,1.9,3.266,2.99,4.8a22.869,22.869,0,0,0,7.134,6.354c.791.47,1.6.909,2.412,1.344a1.175,1.175,0,0,0,1.519-.262c.553-.584,1.073-1.2,1.609-1.8.506-.567.982-1.167,1.529-1.692a1.538,1.538,0,0,1,2.278-.214q2.6,1.541,5.221,3.063c.5.3,1.018.576,1.523.872a1.179,1.179,0,0,1,.628,1.2,10.594,10.594,0,0,1-.821,3.44,2.7,2.7,0,0,1-.638.882A10.572,10.572,0,0,1,2144.644,8270.967Z"/></g></svg>