<svg xmlns="http://www.w3.org/2000/svg" width="59.666" height="46.088" viewBox="0 0 59.666 46.088"><defs><style>.a{fill:#c09bfc;opacity: 1;}</style></defs><path class="a" d="M91.65,2566.669l12.578-11.318q6.2-5.574,12.39-11.153a2.809,2.809,0,0,1,3.19-.73,2.844,2.844,0,0,1,1.659,2.907q0,7.74,0,15.481a3.283,3.283,0,0,1-1.156,2.584q-13.286,11.938-26.557,23.9c-1.47,1.323-2.791,1.309-4.28-.031q-13.25-11.921-26.5-23.841a3.29,3.29,0,0,1-1.175-2.577c.007-5.187-.008-10.374.008-15.561.007-2.25,1.809-3.652,3.7-2.883a4.43,4.43,0,0,1,1.23.848q12.077,10.848,24.14,21.714C91.115,2566.213,91.355,2566.414,91.65,2566.669Z" transform="translate(-61.803 -2543.23)"/></svg>