<svg xmlns="http://www.w3.org/2000/svg" width="22.666" height="14.43" viewBox="0 0 22.666 14.43"><defs><style>.a{fill:#8c32ff;}</style></defs><g transform="translate(-89.273 -441.69)"><path class="a" d="M97.605,455.575a3.864,3.864,0,0,0,1.591-.706,3.908,3.908,0,0,0,1-1.107,4.129,4.129,0,0,0,.626-2.246,3.729,3.729,0,0,0-.548-2.062,3.147,3.147,0,0,0-1.626-1.242,3.361,3.361,0,0,0,1.074-.8,3.135,3.135,0,0,0,.652-2.072,3.579,3.579,0,0,0-.647-2.149,4.319,4.319,0,0,0-3.647-1.5h-6.8v14.077h6.343A9.7,9.7,0,0,0,97.605,455.575Zm-5.524-11.44h3.062a5.287,5.287,0,0,1,1.664.22,1.26,1.26,0,0,1,.756,1.3,1.329,1.329,0,0,1-.572,1.237,2.834,2.834,0,0,1-1.489.349H92.081Zm0,9.187v-3.753h3.464a3.56,3.56,0,0,1,1.407.239,1.51,1.51,0,0,1,.9,1.508,1.775,1.775,0,0,1-.925,1.758,3.317,3.317,0,0,1-1.425.248Z"/><path class="a" d="M103.2,454.839a5.667,5.667,0,0,0,3.666,1.281,5.056,5.056,0,0,0,3.916-1.518,3.4,3.4,0,0,0,1.01-1.882h-2.779a2.275,2.275,0,0,1-.561.716,2.3,2.3,0,0,1-1.511.478,2.763,2.763,0,0,1-1.5-.392,2.5,2.5,0,0,1-1.089-2.2h7.581a13.274,13.274,0,0,0-.089-2.065,5.1,5.1,0,0,0-.83-2.152,4.219,4.219,0,0,0-1.8-1.54,5.92,5.92,0,0,0-2.447-.487,5.019,5.019,0,0,0-3.722,1.443,5.632,5.632,0,0,0-1.434,4.147A5.046,5.046,0,0,0,103.2,454.839Zm1.944-6.92a2.162,2.162,0,0,1,1.624-.594,2.393,2.393,0,0,1,1.616.56,2.277,2.277,0,0,1,.725,1.645h-4.69A2.837,2.837,0,0,1,105.147,447.919Z"/><rect class="a" width="6.117" height="1.421" transform="translate(103.535 442.499)"/></g></svg>