<svg xmlns="http://www.w3.org/2000/svg" width="25.621" height="19.79" viewBox="0 0 25.621 19.79"><defs><style>.a{fill:#65e0b1;}</style></defs><path class="a" d="M2830.765,1489.966l5.4-4.86q2.661-2.394,5.32-4.79a1.207,1.207,0,0,1,1.37-.313,1.222,1.222,0,0,1,.713,1.248q0,3.324,0,6.648a1.409,1.409,0,0,1-.5,1.11q-5.7,5.125-11.4,10.26a1.2,1.2,0,0,1-1.838-.013q-5.688-5.119-11.378-10.238a1.41,1.41,0,0,1-.5-1.106c0-2.227,0-4.455,0-6.682a1.174,1.174,0,0,1,1.589-1.238,1.915,1.915,0,0,1,.528.364q5.187,4.659,10.366,9.324C2830.535,1489.77,2830.638,1489.857,2830.765,1489.966Z" transform="translate(-2817.948 -1479.901)"/></svg>