<svg xmlns="http://www.w3.org/2000/svg" width="27.492" height="35.59" viewBox="0 0 27.492 35.59"><defs><style>.a{fill:#131313;}</style></defs><path class="a" d="M2968.69,1531.974l-6.751-7.5q-3.326-3.7-6.653-7.391a1.675,1.675,0,0,1-.435-1.9,1.7,1.7,0,0,1,1.734-.99q4.617,0,9.234,0a1.96,1.96,0,0,1,1.542.689q7.12,7.926,14.253,15.841a1.667,1.667,0,0,1-.019,2.554q-7.11,7.9-14.221,15.805a1.96,1.96,0,0,1-1.537.7c-3.094,0-6.188.005-9.282-.005a1.63,1.63,0,0,1-1.72-2.207,2.664,2.664,0,0,1,.506-.734q6.471-7.2,12.952-14.4C2968.418,1532.293,2968.538,1532.149,2968.69,1531.974Z" transform="translate(-2954.708 -1514.187)"/></svg>